<?xml version="1.0" encoding="iso-8859-1"?>
<!-- Uploaded to: SVG Repo, www.svgrepo.com, Generator: SVG Repo Mixer Tools -->
<svg height="800px" width="800px" version="1.1" id="Layer_1" xmlns="http://www.w3.org/2000/svg" xmlns:xlink="http://www.w3.org/1999/xlink" 
	 viewBox="0 0 512 512" xml:space="preserve">
<path style="fill:#DCFFF9;" d="M202.645,158.99c0-83.343,67.562-150.905,150.905-150.905l0,0
	c83.343,0,150.905,67.562,150.905,150.905l0,0c0,83.343-67.562,150.905-150.905,150.905H202.645V158.99z"/>
<path style="fill:#C3FFF9;" d="M504.455,158.99L504.455,158.99c0,83.343-67.562,150.905-150.905,150.905h-33.415
	c83.343,0,150.905-67.562,150.905-150.905l0,0c0-77.695-58.718-141.664-134.198-149.979c5.488-0.605,11.059-0.926,16.707-0.926l0,0
	C436.893,8.084,504.455,75.647,504.455,158.99z"/>
<path style="fill:#A1E2CD;" d="M357.508,163.033c1.657,21.377-15.736,39.215-36.966,38.304
	c-18.703-0.802-33.967-17.493-33.967-36.213v-30.387c0-4.465,3.62-8.084,8.084-8.084l0,0c4.465,0,8.084,3.62,8.084,8.084v1.348
	c6.41-4.182,14.24-6.362,22.603-5.612C342.453,132.008,356.181,145.908,357.508,163.033z M417.457,162.811
	c-8.362-0.75-16.193,1.429-22.603,5.612v-1.348c0-4.465-3.62-8.084-8.084-8.084l0,0c-4.465,0-8.084,3.62-8.084,8.084v30.387
	c0,18.72,15.264,35.411,33.966,36.214c21.23,0.911,38.623-16.927,36.967-38.303C448.291,178.246,434.564,164.346,417.457,162.811z"
	/>
<path style="fill:#87CEB7;" d="M449.727,198.186c0,19.586-15.935,35.522-35.521,35.522c-3.803,0-7.464-0.607-10.902-1.718
	c14.268-4.612,24.62-18.019,24.62-33.803c0-15.775-10.34-29.175-24.596-33.795c3.431-1.11,7.082-1.727,10.877-1.727
	C433.793,162.664,449.727,178.599,449.727,198.186z M322.096,130.327c-3.796,0-7.446,0.617-10.878,1.727
	c14.256,4.62,24.596,18.019,24.596,33.795c0,15.785-10.352,29.19-24.62,33.803c3.437,1.111,7.099,1.718,10.902,1.718
	c19.586,0,35.522-15.935,35.522-35.522S341.682,130.327,322.096,130.327z"/>
<path style="fill:#6DB2A5;" d="M178.008,383.527c-25.791,43.535-81.991,57.919-125.525,32.128l0,0
	c-43.535-25.792-57.92-81.991-32.129-125.526l8.242-13.91l168.641,74.85L178.008,383.527z"/>
<path style="fill:#61A3A0;" d="M197.237,351.069l-19.229,32.458c-25.791,43.535-81.991,57.919-125.525,32.128l0,0
	c-27.193-16.11-43.011-44.083-44.771-73.423l87.258-9.712c5.458-0.608,9.587-5.221,9.587-10.713v-11.874L197.237,351.069z"/>
<path style="fill:#AFF2D8;" d="M126.114,272.169c0-26.789,21.716-48.505,48.505-48.505l0,0c26.789,0,48.505,21.716,48.505,48.505
	v91.621h-97.011V272.169z"/>
<path style="fill:#FFB36E;" d="M285.819,257.98l-41.137,41.136l39.049,19.525c2.492,1.246,4.067,3.794,4.067,6.581
	c0,3.596-2.6,6.666-6.147,7.256l-72.135,11.816v-86.23l70.411-11.53c4.12-0.687,7.871,2.49,7.871,6.667l0,0
	C287.798,254.993,287.086,256.713,285.819,257.98z"/>
<path style="fill:#FF9F50;" d="M287.798,325.22c0,3.596-2.6,6.666-6.147,7.256l-72.539,11.883v-39.636l35.832-5.869l-0.262,0.262
	l39.049,19.525C286.224,319.887,287.798,322.434,287.798,325.22z"/>
<path style="fill:#A1E2CD;" d="M223.125,272.169v91.621h-21.558v-91.621c0-23.082-16.129-42.385-37.726-47.288
	c3.469-0.787,7.072-1.217,10.779-1.217l0,0C201.408,223.663,223.125,245.38,223.125,272.169z"/>
<path style="fill:#87CEB7;" d="M223.125,379.958c0,50.601-41.02,91.621-91.621,91.621l0,0c-50.601,0-91.621-41.02-91.621-91.621
	V363.79l183.242-21.558V379.958z"/>
<path style="fill:#6DB2A5;" d="M223.125,342.232v37.726c0,50.601-41.02,91.621-91.621,91.621l0,0c-3.649,0-7.241-0.237-10.779-0.652
	c45.517-5.338,80.842-44.017,80.842-90.969v-35.19L223.125,342.232z"/>
<path style="fill:#C3FFF9;" d="M88.388,428.463L88.388,428.463c-0.142,0-0.283,0-0.425-0.001
	c-26.398-0.12-47.96-21.682-48.079-48.08c-0.001-0.141-0.001-0.283-0.001-0.425V363.79l139.505-16.412
	C174.16,393.013,135.424,428.463,88.388,428.463z"/>
<path d="M188.623,266.779v1.078c0,4.466-3.62,8.084-8.084,8.084c-4.465,0-8.084-3.618-8.084-8.084v-1.078
	c0-4.466,3.618-8.084,8.084-8.084S188.623,262.313,188.623,266.779z M353.007,0C265.337,0,194.013,71.322,194.013,158.99v34.884
	c0,4.466,3.618,8.084,8.084,8.084s8.084-3.618,8.084-8.084V158.99c0-78.752,64.071-142.821,142.824-142.821
	S495.832,80.238,495.832,158.99s-64.071,142.821-142.825,142.821h-22.278c-4.466,0-8.084,3.618-8.084,8.084s3.62,8.084,8.084,8.084
	h22.278C440.676,317.979,512,246.657,512,158.99S440.676,0,353.007,0z M395.389,115.874v52.537
	c5.572-3.634,12.219-5.746,19.354-5.746c19.587,0,35.523,15.935,35.523,35.521c0,19.588-15.936,35.522-35.523,35.522
	c-19.586,0-35.522-15.935-35.522-35.522v-74.227h-23.273c-4.466,0-8.084-3.618-8.084-8.084s3.62-8.084,8.084-8.084h31.358
	C391.77,107.79,395.389,111.408,395.389,115.874z M395.389,198.185c0,10.671,8.681,19.354,19.354,19.354s19.355-8.682,19.355-19.354
	c0-10.67-8.682-19.353-19.355-19.353C404.07,178.833,395.389,187.515,395.389,198.185z M322.629,201.37
	c-19.587,0-35.523-15.935-35.523-35.522V91.621h-23.273c-4.466,0-8.084-3.618-8.084-8.084c0-4.466,3.618-8.084,8.084-8.084h31.358
	c4.466,0,8.084,3.618,8.084,8.084v52.538c5.572-3.634,12.22-5.747,19.355-5.747c19.586,0,35.522,15.935,35.522,35.521
	C358.151,185.436,342.216,201.37,322.629,201.37z M341.982,165.848c0-10.67-8.681-19.353-19.354-19.353
	c-10.672,0-19.355,8.682-19.355,19.353c0,10.671,8.682,19.354,19.355,19.354C333.3,185.202,341.982,176.521,341.982,165.848z
	 M292.069,263.697l-33.206,33.205l29.019,14.508c5.264,2.633,8.535,7.926,8.535,13.811c0,7.581-5.427,13.987-12.905,15.232
	l-51.771,8.629v30.876c0,42.656-26.927,79.142-64.676,93.353v22.52h13.474c4.466,0,8.084,3.618,8.084,8.084s-3.62,8.084-8.084,8.084
	H158.98c-4.466,0-8.084-3.618-8.084-8.084v-26.042c-6.108,1.174-12.417,1.789-18.863,1.789c-6.446,0-12.755-0.616-18.863-1.789
	v17.958h13.474c4.466,0,8.084,3.618,8.084,8.084s-3.62,8.084-8.084,8.084h-21.559c-4.466,0-8.084-3.618-8.084-8.084v-30.605
	c-37.748-14.212-64.676-50.698-64.676-93.353V363.79c0-4.099,3.069-7.55,7.14-8.028l79.094-9.305v-21.698l-86.145-38.235
	l-4.578,7.725c-9.992,16.868-13.744,36.793-10.564,56.104c1.204,7.318,3.373,14.445,6.445,21.187
	c1.851,4.063,0.058,8.857-4.005,10.709c-4.062,1.85-8.857,0.058-10.709-4.005c-3.664-8.039-6.249-16.54-7.684-25.264
	c-3.796-23.055,0.682-46.839,12.608-66.971l8.242-13.911c2.09-3.526,6.488-4.929,10.236-3.268l86.157,38.24v-34.901
	c0-31.203,25.387-56.589,56.591-56.589c22.331,0,41.681,12.999,50.881,31.829l53.1-8.851c4.319-0.717,8.701,0.49,12.036,3.317
	c3.336,2.825,5.248,6.954,5.248,11.325C296.416,257.165,294.871,260.893,292.069,263.697z M215.572,272.169
	c0-22.289-18.133-40.421-40.422-40.421s-40.422,18.132-40.422,40.421v47.155c0.003,0.121,0.003,0.244,0,0.364v24.866l44.062-5.185
	c0.116-0.016,0.236-0.03,0.355-0.041l18.683-2.198c4.416-0.53,8.452,2.649,8.972,7.084c0.522,4.433-2.649,8.452-7.084,8.972
	l-12.705,1.495c-8.482,47.102-49.569,81.866-98.095,81.866l-0.485-0.001c-4.465-0.033-8.057-3.679-8.025-8.145
	c0.032-4.444,3.647-8.024,8.083-8.024c0.02,0,0.041,0,0.061,0l0.365,0.001c38.965,0,72.204-26.746,81.157-63.704l-42.388,4.986
	c-0.058,0.008-0.114,0.014-0.172,0.021l-79.018,9.296v8.98c0,46.062,37.476,83.537,83.539,83.537s83.539-37.475,83.539-83.537
	v-37.595c-0.002-0.095-0.002-0.189,0-0.282V272.169z M277.712,255.186l-46.718,7.787c0.49,2.994,0.746,6.065,0.746,9.196v60.519
	l46.909-7.818l-37.05-18.525c-2.324-1.162-3.947-3.371-4.364-5.936c-0.416-2.565,0.427-5.174,2.264-7.012L277.712,255.186z"/>
</svg>